<?xml version="1.0" encoding="UTF-8"?>
<!DOCTYPE svg PUBLIC "-//W3C//DTD SVG 1.1//EN" "http://www.w3.org/Graphics/SVG/1.1/DTD/svg11.dtd">
<svg xmlns="http://www.w3.org/2000/svg" version="1.1" width="512px" height="512px" style="shape-rendering:geometricPrecision; text-rendering:geometricPrecision; image-rendering:optimizeQuality; fill-rule:evenodd; clip-rule:evenodd" xmlns:xlink="http://www.w3.org/1999/xlink">
<g><path style="opacity:0.98" fill="#fefffe" d="M 511.5,240.5 C 511.5,250.167 511.5,259.833 511.5,269.5C 500.86,322.305 468.86,352.805 415.5,361C 369.571,363.126 335.405,344.293 313,304.5C 307.165,335.669 288.665,354.169 257.5,360C 225.168,360.5 192.835,360.667 160.5,360.5C 160.5,291.5 160.5,222.5 160.5,153.5C 195.835,153.333 231.168,153.5 266.5,154C 292.552,162.057 308.052,179.557 313,206.5C 339.098,161.666 377.931,143.5 429.5,152C 475.772,164.1 503.105,193.6 511.5,240.5 Z M 215.5,199.5 C 226.231,199.097 236.898,199.597 247.5,201C 254.04,204.229 257.373,209.563 257.5,217C 257.434,224.395 254.101,229.728 247.5,233C 236.839,233.5 226.172,233.667 215.5,233.5C 215.5,222.167 215.5,210.833 215.5,199.5 Z M 397.5,203.5 C 421.079,201.041 439.246,209.708 452,229.5C 463.217,252.873 460.051,274.039 442.5,293C 423.361,308.809 402.694,311.142 380.5,300C 354.546,281.351 348.379,257.517 362,228.5C 370.44,215.208 382.274,206.875 397.5,203.5 Z M 300.5,266.5 C 295.535,261.714 289.868,257.881 283.5,255C 290.099,252.725 295.933,249.225 301,244.5C 300.573,251.748 300.406,259.082 300.5,266.5 Z M 215.5,277.5 C 225.839,277.334 236.172,277.5 246.5,278C 256.915,283.912 259.749,292.412 255,303.5C 253.5,306.333 251.333,308.5 248.5,310C 237.578,311.431 226.578,311.931 215.5,311.5C 215.5,300.167 215.5,288.833 215.5,277.5 Z"/></g>
<g><path style="opacity:0.986" fill="#fefffe" d="M -0.5,153.5 C 18.8333,153.5 38.1667,153.5 57.5,153.5C 57.5,178.833 57.5,204.167 57.5,229.5C 69.5,229.5 81.5,229.5 93.5,229.5C 93.5,204.167 93.5,178.833 93.5,153.5C 112.5,153.5 131.5,153.5 150.5,153.5C 150.5,222.5 150.5,291.5 150.5,360.5C 131.5,360.5 112.5,360.5 93.5,360.5C 93.5,333.833 93.5,307.167 93.5,280.5C 81.5,280.5 69.5,280.5 57.5,280.5C 57.5,307.167 57.5,333.833 57.5,360.5C 38.1667,360.5 18.8333,360.5 -0.5,360.5C -0.5,291.5 -0.5,222.5 -0.5,153.5 Z"/></g>
<g><path style="opacity:0.483" fill="#fefffe" d="M 498.5,159.5 C 506.295,160.399 509.129,164.732 507,172.5C 502,177.833 497,177.833 492,172.5C 489.998,165.835 492.165,161.501 498.5,159.5 Z M 497.5,161.5 C 504.834,161.785 507.168,165.119 504.5,171.5C 503.5,171.167 502.833,170.5 502.5,169.5C 504.326,164.222 502.326,162.056 496.5,163C 497.056,162.617 497.389,162.117 497.5,161.5 Z M 495.5,172.5 C 493.049,170.084 492.883,167.417 495,164.5C 495.497,167.146 495.664,169.813 495.5,172.5 Z M 498.5,165.5 C 500.337,165.639 500.67,166.306 499.5,167.5C 498.702,167.043 498.369,166.376 498.5,165.5 Z M 495.5,172.5 C 496.5,172.5 497.5,172.5 498.5,172.5C 498.351,171.448 498.517,170.448 499,169.5C 499.979,171.32 501.479,172.487 503.5,173C 500.583,175.117 497.916,174.951 495.5,172.5 Z"/></g>
<g><path style="opacity:0.972" fill="#fefffe" d="M 399.5,213.5 C 425.577,211.608 441.744,223.275 448,248.5C 449.922,273.179 439.089,289.012 415.5,296C 385.68,298.683 368.68,285.183 364.5,255.5C 366.081,232.932 377.747,218.932 399.5,213.5 Z"/></g>
</svg>
