<?xml version="1.0" encoding="UTF-8"?>
<!DOCTYPE svg PUBLIC "-//W3C//DTD SVG 1.1//EN" "http://www.w3.org/Graphics/SVG/1.1/DTD/svg11.dtd">
<svg xmlns="http://www.w3.org/2000/svg" version="1.1" width="400px" height="400px" style="shape-rendering:geometricPrecision; text-rendering:geometricPrecision; image-rendering:optimizeQuality; fill-rule:evenodd; clip-rule:evenodd" xmlns:xlink="http://www.w3.org/1999/xlink">
<g><path style="opacity:0.999" fill="#fe0100" d="M 25.5,-0.5 C 141.5,-0.5 257.5,-0.5 373.5,-0.5C 386.5,3.83333 395.167,12.5 399.5,25.5C 399.5,141.5 399.5,257.5 399.5,373.5C 395.167,386.5 386.5,395.167 373.5,399.5C 257.5,399.5 141.5,399.5 25.5,399.5C 12.5,395.167 3.83333,386.5 -0.5,373.5C -0.5,257.5 -0.5,141.5 -0.5,25.5C 3.83333,12.5 12.5,3.83333 25.5,-0.5 Z"/></g>
<g><path style="opacity:1" fill="#fffdfd" d="M 237.5,132.5 C 236.173,148.005 236.173,163.672 237.5,179.5C 238.107,179.376 238.44,179.043 238.5,178.5C 247.373,167.819 258.706,163.986 272.5,167C 283.888,169.388 291.055,176.221 294,187.5C 294.882,190.789 295.548,194.123 296,197.5C 296.757,217.518 296.424,237.518 295,257.5C 293.621,266.98 290.287,275.647 285,283.5C 278.204,290.147 270.038,293.98 260.5,295C 243.899,298.438 228.233,296.105 213.5,288C 206.273,281.384 201.773,273.217 200,263.5C 199.17,258.857 198.503,254.19 198,249.5C 197.333,211.167 197.333,172.833 198,134.5C 198.945,123.664 202.279,113.664 208,104.5C 214.473,97.8459 222.307,93.6792 231.5,92C 246.361,90.618 261.028,91.618 275.5,95C 286.899,100.086 293.399,108.92 295,121.5C 296.21,128.112 296.71,134.778 296.5,141.5C 282.833,141.5 269.167,141.5 255.5,141.5C 255.666,135.158 255.5,128.825 255,122.5C 253.244,116.036 249.077,113.87 242.5,116C 238.643,120.741 236.977,126.241 237.5,132.5 Z"/></g>
<g><path style="opacity:1" fill="#fffefe" d="M 130.5,94.5 C 141.833,94.5 153.167,94.5 164.5,94.5C 164.5,160.5 164.5,226.5 164.5,292.5C 151.833,292.5 139.167,292.5 126.5,292.5C 126.667,243.499 126.5,194.499 126,145.5C 119.44,152.361 111.606,157.028 102.5,159.5C 102.333,147.829 102.5,136.162 103,124.5C 115.855,117.815 125.022,107.815 130.5,94.5 Z"/></g>
<g><path style="opacity:1" fill="#ffb5b5" d="M 237.5,132.5 C 237.17,148.009 237.504,163.342 238.5,178.5C 238.44,179.043 238.107,179.376 237.5,179.5C 236.173,163.672 236.173,148.005 237.5,132.5 Z"/></g>
<g><path style="opacity:1" fill="#fe1409" d="M 242.5,195.5 C 246.257,195.071 249.757,195.737 253,197.5C 254.827,201.281 255.827,205.281 256,209.5C 256.866,227.529 256.533,245.529 255,263.5C 253.41,270.214 249.244,272.714 242.5,271C 239.288,268.269 237.788,264.769 238,260.5C 237.333,242.167 237.333,223.833 238,205.5C 238.164,201.51 239.664,198.177 242.5,195.5 Z"/></g>
</svg>
